#!OML:ASF E:\pregnant2\Project 1\Capture day 1\Session 1\pregnant2.ASF
:FULLY-SPECIFIED
:DEGREES
1114
root 5.82378 22.2999 -9.85337 29.1312 -3.04767 3.53481
lowerback -3.38835 4.26631 2.19025
upperback -15.2825 5.09266 -9.01119
thorax -13.9724 1.47128 -11.9009
lowerneck -3.89037 -5.53851 -1.31156
upperneck 54.0734 -10.0168 2.52492
head 25.2443 -3.76001 -0.194903
rclavicle -4.05521e-014 -1.43125e-014
rhumerus -68.0453 -13.1071 -75.3294
rradius 45.8091
rwrist 5.87621
rhand -10.7658 -11.1207
rfingers 7.12502
rthumb 15.2461 -40.5389
lclavicle -4.05521e-014 -1.43125e-014
lhumerus -50.5941 -24.5847 79.951
lradius 45.5636
lwrist 7.35101
lhand -9.76776 28.5385
lfingers 7.12502
lthumb 16.2073 57.881
rfemur -65.817 1.89798 13.5271
rtibia 40.6892
rfoot 5.05056 -19.6089
rtoes 8.769
lfemur -39.9104 -8.39629 -28.8594
ltibia 37.73
lfoot -18.9781 16.6392
ltoes -15.8652
1115
root 5.81014 22.2634 -9.77965 29.0097 -2.76187 3.63855
lowerback -3.46367 4.18722 2.1968
upperback -15.1999 4.99165 -8.97682
thorax -13.8457 1.43542 -11.8364
lowerneck -3.88185 -5.52814 -1.37796
upperneck 54.0927 -9.9783 2.52224
head 25.2709 -3.75842 -0.175355
rclavicle -5.56597e-015 -1.11319e-014
rhumerus -68.058 -12.9093 -75.3494
rradius 45.9902
rwrist 5.75637
rhand -10.7619 -11.0886
rfingers 7.12502
rthumb 15.2499 -40.5065
lclavicle -5.56597e-015 -1.11319e-014
lhumerus -50.4774 -24.567 79.8341
lradius 45.5756
lwrist 7.35789
lhand -9.72656 28.5213
lfingers 7.12502
lthumb 16.247 57.8606
rfemur -65.23 2.31892 12.8395
rtibia 39.6921
rfoot 4.9682 -20.6447
rtoes 9.48168
lfemur -39.8507 -7.75566 -29.1944
ltibia 38.49
lfoot -19.6368 16.0209
ltoes -16.5228
1116
root 5.79551 22.2222 -9.70548 28.8793 -2.46615 3.74444
lowerback -3.54264 4.10694 2.20367
upperback -15.1323 4.88853 -8.94369
thorax -13.7362 1.39649 -11.7762
lowerneck -3.80566 -5.51413 -1.43909
upperneck 54.1108 -9.93267 2.5219
head 25.2623 -3.75534 -0.150535
rclavicle -7.09661e-014 5.56597e-014
rhumerus -68.1287 -12.6862 -75.3829
rradius 46.2014
rwrist 5.62607
rhand -10.761 -11.0677
rfingers 7.12502
rthumb 15.2507 -40.4855
lclavicle -7.09661e-014 5.56597e-014
lhumerus -50.407 -24.5445 79.7285
lradius 45.5863
lwrist 7.34436
lhand -9.71328 28.4439
lfingers 7.12502
lthumb 16.2597 57.7822
rfemur -64.6409 2.74676 12.1694
rtibia 38.7963
rfoot 4.77511 -21.7226
rtoes 10.305
lfemur -39.8311 -7.17804 -29.4948
ltibia 39.354
lfoot -20.296 15.4863
ltoes -17.2164
1117
root 5.77984 22.1771 -9.63059 28.7392 -2.16928 3.85082
lowerback -3.60639 4.02718 2.20608
upperback -15.0688 4.78574 -8.90963
thorax -13.6419 1.35698 -11.7152
lowerneck -3.73023 -5.49935 -1.50583
upperneck 54.1307 -9.88589 2.52453
head 25.2579 -3.75256 -0.122703
rclavicle -4.07509e-015 2.38542e-014
rhumerus -68.2083 -12.4598 -75.4177
rradius 46.416
rwrist 5.49425
rhand -10.7501 -11.1181
rfingers 7.12502
rthumb 15.2613 -40.5351
lclavicle -4.07509e-015 2.38542e-014
lhumerus -50.3585 -24.5215 79.636
lradius 45.6162
lwrist 7.34102
lhand -9.70491 28.4204
lfingers 7.12502
lthumb 16.2678 57.7579
rfemur -64.0462 3.18021 11.5261
rtibia 37.9912
rfoot 4.50021 -22.8069
rtoes 11.2208
lfemur -39.8428 -6.71136 -29.7429
ltibia 40.3087
lfoot -20.9231 15.0854
ltoes -17.9744
1118
root 5.76329 22.1288 -9.55483 28.5938 -1.87542 3.9602
lowerback -3.66776 3.94923 2.19649
upperback -15.0096 4.68471 -8.87593
thorax -13.5547 1.31907 -11.6492
lowerneck -3.64275 -5.48649 -1.57544
upperneck 54.1497 -9.84265 2.53014
head 25.2477 -3.75177 -0.0926596
rclavicle 1.35174e-014 2.22639e-014
rhumerus -68.3119 -12.2253 -75.4545
rradius 46.649
rwrist 5.36351
rhand -10.7316 -11.2131
rfingers 7.12502
rthumb 15.279 -40.6288
lclavicle 1.35174e-014 2.22639e-014
lhumerus -50.3349 -24.4986 79.5545
lradius 45.673
lwrist 7.32221
lhand -9.67678 28.4
lfingers 7.12502
lthumb 16.2949 57.7353
rfemur -63.4476 3.6071 10.9175
rtibia 37.2674
rfoot 4.18917 -23.8485
rtoes 12.1437
lfemur -39.8817 -6.39156 -29.9309
ltibia 41.3424
lfoot -21.5028 14.843
ltoes -18.7933
1119
root 5.74567 22.0775 -9.47875 28.4475 -1.57963 4.07609
lowerback -3.72557 3.87124 2.16258
upperback -14.9483 4.58289 -8.83968
thorax -13.4689 1.28393 -11.5663
lowerneck -3.58305 -5.47583 -1.63476
upperneck 54.1734 -9.80132 2.52435
head 25.2532 -3.74914 -0.0730301
rclavicle -2.84262e-014 3.65764e-014
rhumerus -68.3973 -12.002 -75.477
rradius 46.8611
rwrist 5.23686
rhand -10.7191 -11.2988
rfingers 7.12502
rthumb 15.2911 -40.7135
lclavicle -2.84262e-014 3.65764e-014
lhumerus -50.308 -24.4669 79.4823
lradius 45.7406
lwrist 7.30129
lhand -9.62803 28.4364
lfingers 7.12502
lthumb 16.3418 57.7679
rfemur -62.8484 4.024 10.3394
rtibia 36.6172
rfoot 3.87531 -24.8266
rtoes 13.0234
lfemur -39.95 -6.22248 -30.0618
ltibia 42.4471
lfoot -22.0322 14.7415
ltoes -19.6463
1120
root 5.7272 22.0233 -9.4016 28.3033 -1.29034 4.19807
lowerback -3.78274 3.79508 2.10839
upperback -14.8835 4.48303 -8.80185
thorax -13.3797 1.25263 -11.4695
lowerneck -3.55525 -5.46735 -1.69657
upperneck 54.1994 -9.76104 2.51216
head 25.2761 -3.74664 -0.0584338
rclavicle -4.07509e-015 7.95139e-015
rhumerus -68.4701 -11.7868 -75.4854
rradius 47.0628
rwrist 5.12653
rhand -10.7087 -11.3568
rfingers 7.12502
rthumb 15.3011 -40.7708
lclavicle -4.07509e-015 7.95139e-015
lhumerus -50.2718 -24.4102 79.4057
lradius 45.8227
lwrist 7.2486
lhand -9.5266 28.5012
lfingers 7.12502
lthumb 16.4395 57.8247
rfemur -62.2506 4.42514 9.79859
rtibia 36.037
rfoot 3.56433 -25.7105
rtoes 13.8995
lfemur -40.0448 -6.15345 -30.1561
ltibia 43.618
lfoot -22.5347 14.7305
ltoes -20.5228
1121
root 5.70783 21.9661 -9.32323 28.1673 -1.00702 4.3247
lowerback -3.85388 3.72168 2.03246
upperback -14.8199 4.38639 -8.76333
thorax -13.2837 1.22602 -11.3583
lowerneck -3.5392 -5.46195 -1.75418
upperneck 54.2285 -9.72319 2.49142
head 25.3064 -3.74427 -0.0507491
rclavicle -1.99779e-014 -1.74931e-014
rhumerus -68.5368 -11.5841 -75.4741
rradius 47.2405
rwrist 5.03943
rhand -10.7137 -11.3824
rfingers 7.12502
rthumb 15.2963 -40.7967
lclavicle -1.99779e-014 -1.74931e-014
lhumerus -50.235 -24.3311 79.3271
lradius 45.9118
lwrist 7.18414
lhand -9.40035 28.5839
lfingers 7.12502
lthumb 16.561 57.8972
rfemur -61.6607 4.80519 9.30003
rtibia 35.5276
rfoot 3.26321 -26.4804
rtoes 14.7915
lfemur -40.1705 -6.13675 -30.2284
ltibia 44.8547
lfoot -23.0334 14.7533
ltoes -21.3879
1122
root 5.68744 21.9056 -9.24373 28.0376 -0.727692 4.45557
lowerback -3.93308 3.64934 1.93826
upperback -14.7634 4.2907 -8.72304
thorax -13.1922 1.20161 -11.2348
lowerneck -3.5237 -5.45609 -1.80572
upperneck 54.2643 -9.6804 2.45883
head 25.3419 -3.73954 -0.0503333
rclavicle 4.48259e-014 -4.45278e-014
rhumerus -68.6092 -11.3846 -75.4472
rradius 47.4015
rwrist 4.96166
rhand -10.7269 -11.359
rfingers 7.12502
rthumb 15.2835 -40.7743
lclavicle 4.48259e-014 -4.45278e-014
lhumerus -50.2066 -24.2242 79.2481
lradius 45.9995
lwrist 7.13243
lhand -9.28887 28.6221
lfingers 7.12502
lthumb 16.6684 57.9264
rfemur -61.0769 5.16474 8.84608
rtibia 35.0896
rfoot 3.00747 -27.1237
rtoes 15.6568
lfemur -40.3282 -6.12541 -30.2928
ltibia 46.1553
lfoot -23.5353 14.7683
ltoes -22.2612
1123
root 5.66601 21.842 -9.16291 27.917 -0.451941 4.58762
lowerback -4.01861 3.57799 1.83174
upperback -14.7087 4.19635 -8.68102
thorax -13.0991 1.17936 -11.1021
lowerneck -3.52703 -5.45156 -1.86156
upperneck 54.2993 -9.63749 2.42297
head 25.3856 -3.73529 -0.0519113
rclavicle 3.10104e-014 -1.59028e-014
rhumerus -68.6713 -11.194 -75.4062
rradius 47.542
rwrist 4.89875
rhand -10.7463 -11.3557
rfingers 7.12502
rthumb 15.2648 -40.7724
lclavicle 3.10104e-014 -1.59028e-014
lhumerus -50.1807 -24.0958 79.17
lradius 46.0957
lwrist 7.10143
lhand -9.19147 28.6692
lfingers 7.12502
lthumb 16.7621 57.9656
rfemur -60.5015 5.4978 8.44875
rtibia 34.7233
rfoot 2.83496 -27.635
rtoes 16.4662
lfemur -40.5188 -6.10217 -30.3506
ltibia 47.5197
lfoot -24.053 14.7492
ltoes -23.1158
1124
root 5.64325 21.7753 -9.08087 27.8014 -0.18024 4.71487
lowerback -4.11709 3.50734 1.7204
upperback -14.6661 4.10295 -8.63748
thorax -13.0128 1.15731 -10.9657
lowerneck -3.49952 -5.44417 -1.9163
upperneck 54.3343 -9.5887 2.38674
head 25.4137 -3.72982 -0.0513111
rclavicle -1.49089e-014 4.29375e-014
rhumerus -68.7534 -11.0003 -75.3602
rradius 47.6704
rwrist 4.83208
rhand -10.7604 -11.3739
rfingers 7.12502
rthumb 15.2513 -40.7917
lclavicle -1.49089e-014 4.29375e-014
lhumerus -50.1846 -23.9468 79.0913
lradius 46.1925
lwrist 7.08537
lhand -9.14682 28.6559
lfingers 7.12502
lthumb 16.8051 57.9487
rfemur -59.9293 5.80874 8.11853
rtibia 34.4276
rfoot 2.76845 -28.03
rtoes 17.2098
lfemur -40.7394 -6.0523 -30.3986
ltibia 48.9441
lfoot -24.5791 14.695
ltoes -23.9612
1125
root 5.61905 21.7055 -8.99757 27.6927 0.0866614 4.83222
lowerback -4.2117 3.43746 1.61002
upperback -14.6279 4.01111 -8.58969
thorax -12.9339 1.13544 -10.8264
lowerneck -3.49612 -5.43332 -1.9775
upperneck 54.368 -9.53227 2.34933
head 25.4521 -3.72228 -0.0498071
rclavicle -9.02482e-014 8.11041e-014
rhumerus -68.8295 -10.8091 -75.3103
rradius 47.7852
rwrist 4.76073
rhand -10.7799 -11.4441
rfingers 7.12502
rthumb 15.2326 -40.8633
lclavicle -9.02482e-014 8.11041e-014
lhumerus -50.1922 -23.7803 79.0169
lradius 46.2824
lwrist 7.10216
lhand -9.15789 28.649
lfingers 7.12502
lthumb 16.7945 57.9427
rfemur -59.3609 6.0931 7.86876
rtibia 34.1993
rfoot 2.80969 -28.3311
rtoes 17.909
lfemur -40.9902 -5.96813 -30.4348
ltibia 50.4254
lfoot -25.1132 14.6076
ltoes -24.7883
1126
root 5.5935 21.6323 -8.9128 27.5879 0.349465 4.93469
lowerback -4.30595 3.36996 1.5011
upperback -14.5929 3.92325 -8.53623
thorax -12.8581 1.11535 -10.6823
lowerneck -3.50285 -5.42204 -2.04356
upperneck 54.3946 -9.47452 2.31414
head 25.4874 -3.71497 -0.0461835
rclavicle -2.38542e-015 1.11319e-014
rhumerus -68.9093 -10.6198 -75.256
rradius 47.8911
rwrist 4.68731
rhand -10.7821 -11.5863
rfingers 7.12502
rthumb 15.2304 -41.0057
lclavicle -2.38542e-015 1.11319e-014
lhumerus -50.2141 -23.6017 78.9479
lradius 46.3739
lwrist 7.11804
lhand -9.19102 28.6312
lfingers 7.12502
lthumb 16.7626 57.9275
rfemur -58.792 6.34449 7.7134
rtibia 34.0365
rfoot 2.95343 -28.5642
rtoes 18.577
lfemur -41.2648 -5.84187 -30.4579
ltibia 51.9573
lfoot -25.6627 14.4894
ltoes -25.5645
1127
root 5.56661 21.5555 -8.82642 27.4905 0.600033 5.01494
lowerback -4.40847 3.30911 1.39491
upperback -14.5661 3.84526 -8.4771
thorax -12.785 1.09979 -10.5342
lowerneck -3.50804 -5.40977 -2.10608
upperneck 54.4161 -9.41394 2.27647
head 25.5139 -3.70627 -0.0439955
rclavicle 2.77305e-014 -1.11319e-014
rhumerus -68.9987 -10.4336 -75.1992
rradius 47.9827
rwrist 4.61349
rhand -10.782 -11.7461
rfingers 7.12502
rthumb 15.2305 -41.1655
lclavicle 2.77305e-014 -1.11319e-014
lhumerus -50.2586 -23.4147 78.888
lradius 46.4607
lwrist 7.12905
lhand -9.24127 28.6073
lfingers 7.12502
lthumb 16.7142 57.9077
rfemur -58.2285 6.56454 7.66081
rtibia 33.938
rfoot 3.17027 -28.7577
rtoes 19.2259
lfemur -41.5592 -5.66776 -30.4649
ltibia 53.5293
lfoot -26.2384 14.3528
ltoes -26.2602
1128
root 5.53826 21.4744 -8.7386 27.3955 0.842037 5.07188
lowerback -4.51095 3.25341 1.29241
upperback -14.547 3.775 -8.41113
thorax -12.7197 1.08738 -10.3819
lowerneck -3.51348 -5.39675 -2.16291
upperneck 54.4348 -9.35124 2.23507
head 25.5351 -3.69599 -0.0446698
rclavicle 2.44505e-014 -3.18055e-015
rhumerus -69.0968 -10.252 -75.1388
rradius 48.0551
rwrist 4.54176
rhand -10.7976 -11.8581
rfingers 7.12502
rthumb 15.2155 -41.2786
lclavicle 2.44505e-014 -3.18055e-015
lhumerus -50.3327 -23.2236 78.8378
lradius 46.5486
lwrist 7.12799
lhand -9.34596 28.5063
lfingers 7.12502
lthumb 16.6134 57.8153
rfemur -57.6644 6.73727 7.72528
rtibia 33.9028
rfoot 3.43804 -28.9172
rtoes 19.8806
lfemur -41.8628 -5.44776 -30.4539
ltibia 55.1286
lfoot -26.8442 14.2115
ltoes -26.8767
